<svg width="399" height="92" viewBox="0 0 399 92" fill="none" xmlns="http://www.w3.org/2000/svg">
<g filter="url(#filter0_d)">
<path d="M10.296 73C8.616 73 7.32 72.544 6.408 71.632C5.496 70.72 5.04 69.424 5.04 67.744V27.496C5.04 25.816 5.496 24.52 6.408 23.608C7.32 22.696 8.616 22.24 10.296 22.24H24.768C30.288 22.24 35.04 23.248 39.024 25.264C43.008 27.28 46.056 30.184 48.168 33.976C50.28 37.768 51.336 42.304 51.336 47.584C51.336 52.864 50.28 57.424 48.168 61.264C46.104 65.056 43.08 67.96 39.096 69.976C35.112 71.992 30.336 73 24.768 73H10.296ZM23.976 63.928C34.776 63.928 40.176 58.48 40.176 47.584C40.176 36.736 34.776 31.312 23.976 31.312H16.272V63.928H23.976ZM87.6741 36.928C89.3541 36.928 90.6741 37.384 91.6341 38.296C92.6421 39.208 93.1461 40.456 93.1461 42.04V68.464C93.1461 69.952 92.6181 71.152 91.5621 72.064C90.5541 72.976 89.2341 73.432 87.6021 73.432C86.0661 73.432 84.8421 73 83.9301 72.136C83.0181 71.272 82.5621 70.12 82.5621 68.68V67.96C81.4581 69.784 79.9941 71.176 78.1701 72.136C76.3941 73.096 74.3781 73.576 72.1221 73.576C67.6581 73.576 64.3221 72.352 62.1141 69.904C59.9541 67.408 58.8741 63.664 58.8741 58.672V42.04C58.8741 40.456 59.3541 39.208 60.3141 38.296C61.3221 37.384 62.6661 36.928 64.3461 36.928C66.0261 36.928 67.3461 37.384 68.3061 38.296C69.2661 39.208 69.7461 40.456 69.7461 42.04V58.888C69.7461 61 70.1781 62.56 71.0421 63.568C71.9541 64.576 73.3221 65.08 75.1461 65.08C77.2581 65.08 78.9621 64.36 80.2581 62.92C81.6021 61.48 82.2741 59.584 82.2741 57.232V42.04C82.2741 40.456 82.7541 39.208 83.7141 38.296C84.6741 37.384 85.9941 36.928 87.6741 36.928ZM130.073 36.928C131.753 36.928 133.073 37.384 134.033 38.296C135.041 39.208 135.545 40.456 135.545 42.04V68.464C135.545 69.952 135.017 71.152 133.961 72.064C132.953 72.976 131.633 73.432 130.001 73.432C128.465 73.432 127.241 73 126.329 72.136C125.417 71.272 124.961 70.12 124.961 68.68V67.96C123.857 69.784 122.393 71.176 120.569 72.136C118.793 73.096 116.777 73.576 114.521 73.576C110.057 73.576 106.721 72.352 104.513 69.904C102.353 67.408 101.273 63.664 101.273 58.672V42.04C101.273 40.456 101.753 39.208 102.713 38.296C103.721 37.384 105.065 36.928 106.745 36.928C108.425 36.928 109.745 37.384 110.705 38.296C111.665 39.208 112.145 40.456 112.145 42.04V58.888C112.145 61 112.577 62.56 113.441 63.568C114.353 64.576 115.721 65.08 117.545 65.08C119.657 65.08 121.361 64.36 122.657 62.92C124.001 61.48 124.673 59.584 124.673 57.232V42.04C124.673 40.456 125.153 39.208 126.113 38.296C127.073 37.384 128.393 36.928 130.073 36.928ZM166.063 36.784C170.287 36.784 173.431 38.032 175.495 40.528C177.559 42.976 178.591 46.696 178.591 51.688V68.32C178.591 69.904 178.087 71.152 177.079 72.064C176.119 72.976 174.799 73.432 173.119 73.432C171.439 73.432 170.119 72.976 169.159 72.064C168.199 71.152 167.719 69.904 167.719 68.32V52.192C167.719 49.792 167.263 48.04 166.351 46.936C165.487 45.832 164.119 45.28 162.247 45.28C159.991 45.28 158.167 46 156.775 47.44C155.431 48.88 154.759 50.8 154.759 53.2V68.32C154.759 69.904 154.279 71.152 153.319 72.064C152.359 72.976 151.039 73.432 149.359 73.432C147.679 73.432 146.335 72.976 145.327 72.064C144.367 71.152 143.887 69.904 143.887 68.32V41.896C143.887 40.408 144.391 39.208 145.399 38.296C146.455 37.384 147.799 36.928 149.431 36.928C150.919 36.928 152.119 37.384 153.031 38.296C153.991 39.16 154.471 40.288 154.471 41.68V42.688C155.719 40.768 157.327 39.304 159.295 38.296C161.311 37.288 163.567 36.784 166.063 36.784ZM192.179 73.432C190.595 73.432 189.275 73 188.219 72.136C187.211 71.272 186.707 70 186.707 68.32V42.04C186.707 40.36 187.235 39.088 188.291 38.224C189.347 37.36 190.643 36.928 192.179 36.928C193.715 36.928 194.987 37.36 195.995 38.224C197.051 39.088 197.579 40.36 197.579 42.04V68.32C197.579 70 197.051 71.272 195.995 72.136C194.987 73 193.715 73.432 192.179 73.432ZM192.179 31.168C190.259 31.168 188.747 30.688 187.643 29.728C186.539 28.72 185.987 27.376 185.987 25.696C185.987 24.016 186.539 22.696 187.643 21.736C188.747 20.776 190.259 20.296 192.179 20.296C194.051 20.296 195.539 20.8 196.643 21.808C197.795 22.768 198.371 24.064 198.371 25.696C198.371 27.376 197.819 28.72 196.715 29.728C195.611 30.688 194.099 31.168 192.179 31.168ZM230.095 73.648C225.103 73.648 220.735 72.592 216.991 70.48C213.247 68.368 210.367 65.344 208.351 61.408C206.335 57.472 205.327 52.864 205.327 47.584C205.327 42.304 206.335 37.72 208.351 33.832C210.367 29.896 213.247 26.872 216.991 24.76C220.735 22.648 225.103 21.592 230.095 21.592C236.383 21.592 241.807 23.32 246.367 26.776C247.087 27.352 247.591 27.928 247.879 28.504C248.167 29.08 248.311 29.8 248.311 30.664C248.311 31.912 247.951 32.992 247.231 33.904C246.559 34.768 245.719 35.2 244.711 35.2C244.039 35.2 243.439 35.128 242.911 34.984C242.431 34.792 241.879 34.48 241.255 34.048C239.335 32.8 237.559 31.912 235.927 31.384C234.295 30.808 232.543 30.52 230.671 30.52C226.063 30.52 222.583 31.96 220.231 34.84C217.927 37.672 216.775 41.92 216.775 47.584C216.775 59.008 221.407 64.72 230.671 64.72C232.447 64.72 234.127 64.456 235.711 63.928C237.295 63.352 239.143 62.44 241.255 61.192C241.975 60.76 242.575 60.472 243.055 60.328C243.535 60.136 244.087 60.04 244.711 60.04C245.719 60.04 246.559 60.496 247.231 61.408C247.951 62.272 248.311 63.328 248.311 64.576C248.311 65.44 248.143 66.184 247.807 66.808C247.519 67.384 247.039 67.936 246.367 68.464C241.807 71.92 236.383 73.648 230.095 73.648ZM260.171 73.432C258.587 73.432 257.267 73 256.211 72.136C255.203 71.272 254.699 70 254.699 68.32V26.992C254.699 25.312 255.203 24.04 256.211 23.176C257.267 22.312 258.587 21.88 260.171 21.88C261.707 21.88 262.979 22.312 263.987 23.176C265.043 24.04 265.571 25.312 265.571 26.992V68.32C265.571 70 265.043 71.272 263.987 72.136C262.979 73 261.707 73.432 260.171 73.432ZM279.367 73.432C277.783 73.432 276.463 73 275.407 72.136C274.399 71.272 273.895 70 273.895 68.32V42.04C273.895 40.36 274.423 39.088 275.479 38.224C276.535 37.36 277.831 36.928 279.367 36.928C280.903 36.928 282.175 37.36 283.183 38.224C284.239 39.088 284.767 40.36 284.767 42.04V68.32C284.767 70 284.239 71.272 283.183 72.136C282.175 73 280.903 73.432 279.367 73.432ZM279.367 31.168C277.447 31.168 275.935 30.688 274.831 29.728C273.727 28.72 273.175 27.376 273.175 25.696C273.175 24.016 273.727 22.696 274.831 21.736C275.935 20.776 277.447 20.296 279.367 20.296C281.239 20.296 282.727 20.8 283.831 21.808C284.983 22.768 285.559 24.064 285.559 25.696C285.559 27.376 285.007 28.72 283.903 29.728C282.799 30.688 281.287 31.168 279.367 31.168ZM309.434 73.576C305.786 73.576 302.594 72.832 299.858 71.344C297.122 69.856 295.01 67.744 293.522 65.008C292.082 62.272 291.362 59.056 291.362 55.36C291.362 51.664 292.13 48.424 293.666 45.64C295.25 42.808 297.458 40.624 300.29 39.088C303.122 37.552 306.386 36.784 310.082 36.784C312.002 36.784 313.922 37.048 315.842 37.576C317.81 38.104 319.562 38.848 321.098 39.808C322.586 40.72 323.33 42.064 323.33 43.84C323.33 45.088 323.042 46.12 322.466 46.936C321.89 47.704 321.122 48.088 320.162 48.088C319.538 48.088 318.938 47.992 318.362 47.8C317.834 47.56 317.114 47.224 316.202 46.792C315.194 46.264 314.282 45.856 313.466 45.568C312.698 45.28 311.81 45.136 310.802 45.136C308.114 45.136 306.05 46 304.61 47.728C303.218 49.408 302.522 51.88 302.522 55.144C302.522 58.408 303.218 60.904 304.61 62.632C306.05 64.36 308.114 65.224 310.802 65.224C311.81 65.224 312.698 65.104 313.466 64.864C314.234 64.576 315.17 64.144 316.274 63.568C317.186 63.136 317.906 62.824 318.434 62.632C318.962 62.392 319.538 62.272 320.162 62.272C321.074 62.272 321.818 62.68 322.394 63.496C323.018 64.312 323.33 65.344 323.33 66.592C323.33 68.368 322.586 69.688 321.098 70.552C319.562 71.512 317.786 72.256 315.77 72.784C313.754 73.312 311.642 73.576 309.434 73.576ZM362.004 64.576C363.108 65.632 363.66 66.832 363.66 68.176C363.66 69.52 363.156 70.72 362.148 71.776C361.188 72.832 360.06 73.36 358.764 73.36C357.516 73.36 356.364 72.856 355.308 71.848L339.54 57.232V68.248C339.54 69.928 339.012 71.2 337.956 72.064C336.948 72.928 335.676 73.36 334.14 73.36C332.556 73.36 331.236 72.928 330.18 72.064C329.172 71.2 328.668 69.928 328.668 68.248V26.992C328.668 25.312 329.172 24.04 330.18 23.176C331.236 22.312 332.556 21.88 334.14 21.88C335.676 21.88 336.948 22.312 337.956 23.176C339.012 24.04 339.54 25.312 339.54 26.992V52.768L353.94 38.584C354.996 37.528 356.172 37 357.468 37C358.812 37 359.988 37.504 360.996 38.512C362.004 39.472 362.508 40.624 362.508 41.968C362.508 43.216 361.956 44.392 360.852 45.496L351.276 54.64L362.004 64.576Z" fill="#3AAFA9"/>
</g>
<defs>
<filter id="filter0_d" x="1.04004" y="20.296" width="366.62" height="61.352" filterUnits="userSpaceOnUse" color-interpolation-filters="sRGB">
<feFlood flood-opacity="0" result="BackgroundImageFix"/>
<feColorMatrix in="SourceAlpha" type="matrix" values="0 0 0 0 0 0 0 0 0 0 0 0 0 0 0 0 0 0 127 0"/>
<feOffset dy="4"/>
<feGaussianBlur stdDeviation="2"/>
<feColorMatrix type="matrix" values="0 0 0 0 0 0 0 0 0 0 0 0 0 0 0 0 0 0 0.25 0"/>
<feBlend mode="normal" in2="BackgroundImageFix" result="effect1_dropShadow"/>
<feBlend mode="normal" in="SourceGraphic" in2="effect1_dropShadow" result="shape"/>
</filter>
</defs>
</svg>
