<svg width="359" height="54" viewBox="0 0 359 54" fill="none" xmlns="http://www.w3.org/2000/svg">
<path d="M5.296 53C3.616 53 2.32 52.544 1.408 51.632C0.496 50.72 0.04 49.424 0.04 47.744V7.496C0.04 5.816 0.496 4.52 1.408 3.608C2.32 2.696 3.616 2.24 5.296 2.24H19.768C25.288 2.24 30.04 3.248 34.024 5.264C38.008 7.28 41.056 10.184 43.168 13.976C45.28 17.768 46.336 22.304 46.336 27.584C46.336 32.864 45.28 37.424 43.168 41.264C41.104 45.056 38.08 47.96 34.096 49.976C30.112 51.992 25.336 53 19.768 53H5.296ZM18.976 43.928C29.776 43.928 35.176 38.48 35.176 27.584C35.176 16.736 29.776 11.312 18.976 11.312H11.272V43.928H18.976ZM82.6741 16.928C84.3541 16.928 85.6741 17.384 86.6341 18.296C87.6421 19.208 88.1461 20.456 88.1461 22.04V48.464C88.1461 49.952 87.6181 51.152 86.5621 52.064C85.5541 52.976 84.2341 53.432 82.6021 53.432C81.0661 53.432 79.8421 53 78.9301 52.136C78.0181 51.272 77.5621 50.12 77.5621 48.68V47.96C76.4581 49.784 74.9941 51.176 73.1701 52.136C71.3941 53.096 69.3781 53.576 67.1221 53.576C62.6581 53.576 59.3221 52.352 57.1141 49.904C54.9541 47.408 53.8741 43.664 53.8741 38.672V22.04C53.8741 20.456 54.3541 19.208 55.3141 18.296C56.3221 17.384 57.6661 16.928 59.3461 16.928C61.0261 16.928 62.3461 17.384 63.3061 18.296C64.2661 19.208 64.7461 20.456 64.7461 22.04V38.888C64.7461 41 65.1781 42.56 66.0421 43.568C66.9541 44.576 68.3221 45.08 70.1461 45.08C72.2581 45.08 73.9621 44.36 75.2581 42.92C76.6021 41.48 77.2741 39.584 77.2741 37.232V22.04C77.2741 20.456 77.7541 19.208 78.7141 18.296C79.6741 17.384 80.9941 16.928 82.6741 16.928ZM125.073 16.928C126.753 16.928 128.073 17.384 129.033 18.296C130.041 19.208 130.545 20.456 130.545 22.04V48.464C130.545 49.952 130.017 51.152 128.961 52.064C127.953 52.976 126.633 53.432 125.001 53.432C123.465 53.432 122.241 53 121.329 52.136C120.417 51.272 119.961 50.12 119.961 48.68V47.96C118.857 49.784 117.393 51.176 115.569 52.136C113.793 53.096 111.777 53.576 109.521 53.576C105.057 53.576 101.721 52.352 99.5125 49.904C97.3525 47.408 96.2725 43.664 96.2725 38.672V22.04C96.2725 20.456 96.7525 19.208 97.7125 18.296C98.7205 17.384 100.065 16.928 101.745 16.928C103.425 16.928 104.745 17.384 105.705 18.296C106.665 19.208 107.145 20.456 107.145 22.04V38.888C107.145 41 107.577 42.56 108.441 43.568C109.353 44.576 110.721 45.08 112.545 45.08C114.657 45.08 116.361 44.36 117.657 42.92C119.001 41.48 119.673 39.584 119.673 37.232V22.04C119.673 20.456 120.153 19.208 121.113 18.296C122.073 17.384 123.393 16.928 125.073 16.928ZM161.063 16.784C165.287 16.784 168.431 18.032 170.495 20.528C172.559 22.976 173.591 26.696 173.591 31.688V48.32C173.591 49.904 173.087 51.152 172.079 52.064C171.119 52.976 169.799 53.432 168.119 53.432C166.439 53.432 165.119 52.976 164.159 52.064C163.199 51.152 162.719 49.904 162.719 48.32V32.192C162.719 29.792 162.263 28.04 161.351 26.936C160.487 25.832 159.119 25.28 157.247 25.28C154.991 25.28 153.167 26 151.775 27.44C150.431 28.88 149.759 30.8 149.759 33.2V48.32C149.759 49.904 149.279 51.152 148.319 52.064C147.359 52.976 146.039 53.432 144.359 53.432C142.679 53.432 141.335 52.976 140.327 52.064C139.367 51.152 138.887 49.904 138.887 48.32V21.896C138.887 20.408 139.391 19.208 140.399 18.296C141.455 17.384 142.799 16.928 144.431 16.928C145.919 16.928 147.119 17.384 148.031 18.296C148.991 19.16 149.471 20.288 149.471 21.68V22.688C150.719 20.768 152.327 19.304 154.295 18.296C156.311 17.288 158.567 16.784 161.063 16.784ZM187.179 53.432C185.595 53.432 184.275 53 183.219 52.136C182.211 51.272 181.707 50 181.707 48.32V22.04C181.707 20.36 182.235 19.088 183.291 18.224C184.347 17.36 185.643 16.928 187.179 16.928C188.715 16.928 189.987 17.36 190.995 18.224C192.051 19.088 192.579 20.36 192.579 22.04V48.32C192.579 50 192.051 51.272 190.995 52.136C189.987 53 188.715 53.432 187.179 53.432ZM187.179 11.168C185.259 11.168 183.747 10.688 182.643 9.728C181.539 8.72 180.987 7.376 180.987 5.696C180.987 4.016 181.539 2.696 182.643 1.736C183.747 0.775997 185.259 0.295996 187.179 0.295996C189.051 0.295996 190.539 0.799997 191.643 1.808C192.795 2.768 193.371 4.064 193.371 5.696C193.371 7.376 192.819 8.72 191.715 9.728C190.611 10.688 189.099 11.168 187.179 11.168ZM225.095 53.648C220.103 53.648 215.735 52.592 211.991 50.48C208.247 48.368 205.367 45.344 203.351 41.408C201.335 37.472 200.327 32.864 200.327 27.584C200.327 22.304 201.335 17.72 203.351 13.832C205.367 9.896 208.247 6.872 211.991 4.76C215.735 2.648 220.103 1.592 225.095 1.592C231.383 1.592 236.807 3.32 241.367 6.776C242.087 7.352 242.591 7.928 242.879 8.504C243.167 9.08 243.311 9.8 243.311 10.664C243.311 11.912 242.951 12.992 242.231 13.904C241.559 14.768 240.719 15.2 239.711 15.2C239.039 15.2 238.439 15.128 237.911 14.984C237.431 14.792 236.879 14.48 236.255 14.048C234.335 12.8 232.559 11.912 230.927 11.384C229.295 10.808 227.543 10.52 225.671 10.52C221.063 10.52 217.583 11.96 215.231 14.84C212.927 17.672 211.775 21.92 211.775 27.584C211.775 39.008 216.407 44.72 225.671 44.72C227.447 44.72 229.127 44.456 230.711 43.928C232.295 43.352 234.143 42.44 236.255 41.192C236.975 40.76 237.575 40.472 238.055 40.328C238.535 40.136 239.087 40.04 239.711 40.04C240.719 40.04 241.559 40.496 242.231 41.408C242.951 42.272 243.311 43.328 243.311 44.576C243.311 45.44 243.143 46.184 242.807 46.808C242.519 47.384 242.039 47.936 241.367 48.464C236.807 51.92 231.383 53.648 225.095 53.648ZM255.171 53.432C253.587 53.432 252.267 53 251.211 52.136C250.203 51.272 249.699 50 249.699 48.32V6.992C249.699 5.312 250.203 4.04 251.211 3.176C252.267 2.312 253.587 1.88 255.171 1.88C256.707 1.88 257.979 2.312 258.987 3.176C260.043 4.04 260.571 5.312 260.571 6.992V48.32C260.571 50 260.043 51.272 258.987 52.136C257.979 53 256.707 53.432 255.171 53.432ZM274.367 53.432C272.783 53.432 271.463 53 270.407 52.136C269.399 51.272 268.895 50 268.895 48.32V22.04C268.895 20.36 269.423 19.088 270.479 18.224C271.535 17.36 272.831 16.928 274.367 16.928C275.903 16.928 277.175 17.36 278.183 18.224C279.239 19.088 279.767 20.36 279.767 22.04V48.32C279.767 50 279.239 51.272 278.183 52.136C277.175 53 275.903 53.432 274.367 53.432ZM274.367 11.168C272.447 11.168 270.935 10.688 269.831 9.728C268.727 8.72 268.175 7.376 268.175 5.696C268.175 4.016 268.727 2.696 269.831 1.736C270.935 0.775997 272.447 0.295996 274.367 0.295996C276.239 0.295996 277.727 0.799997 278.831 1.808C279.983 2.768 280.559 4.064 280.559 5.696C280.559 7.376 280.007 8.72 278.903 9.728C277.799 10.688 276.287 11.168 274.367 11.168ZM304.434 53.576C300.786 53.576 297.594 52.832 294.858 51.344C292.122 49.856 290.01 47.744 288.522 45.008C287.082 42.272 286.362 39.056 286.362 35.36C286.362 31.664 287.13 28.424 288.666 25.64C290.25 22.808 292.458 20.624 295.29 19.088C298.122 17.552 301.386 16.784 305.082 16.784C307.002 16.784 308.922 17.048 310.842 17.576C312.81 18.104 314.562 18.848 316.098 19.808C317.586 20.72 318.33 22.064 318.33 23.84C318.33 25.088 318.042 26.12 317.466 26.936C316.89 27.704 316.122 28.088 315.162 28.088C314.538 28.088 313.938 27.992 313.362 27.8C312.834 27.56 312.114 27.224 311.202 26.792C310.194 26.264 309.282 25.856 308.466 25.568C307.698 25.28 306.81 25.136 305.802 25.136C303.114 25.136 301.05 26 299.61 27.728C298.218 29.408 297.522 31.88 297.522 35.144C297.522 38.408 298.218 40.904 299.61 42.632C301.05 44.36 303.114 45.224 305.802 45.224C306.81 45.224 307.698 45.104 308.466 44.864C309.234 44.576 310.17 44.144 311.274 43.568C312.186 43.136 312.906 42.824 313.434 42.632C313.962 42.392 314.538 42.272 315.162 42.272C316.074 42.272 316.818 42.68 317.394 43.496C318.018 44.312 318.33 45.344 318.33 46.592C318.33 48.368 317.586 49.688 316.098 50.552C314.562 51.512 312.786 52.256 310.77 52.784C308.754 53.312 306.642 53.576 304.434 53.576ZM357.004 44.576C358.108 45.632 358.66 46.832 358.66 48.176C358.66 49.52 358.156 50.72 357.148 51.776C356.188 52.832 355.06 53.36 353.764 53.36C352.516 53.36 351.364 52.856 350.308 51.848L334.54 37.232V48.248C334.54 49.928 334.012 51.2 332.956 52.064C331.948 52.928 330.676 53.36 329.14 53.36C327.556 53.36 326.236 52.928 325.18 52.064C324.172 51.2 323.668 49.928 323.668 48.248V6.992C323.668 5.312 324.172 4.04 325.18 3.176C326.236 2.312 327.556 1.88 329.14 1.88C330.676 1.88 331.948 2.312 332.956 3.176C334.012 4.04 334.54 5.312 334.54 6.992V32.768L348.94 18.584C349.996 17.528 351.172 17 352.468 17C353.812 17 354.988 17.504 355.996 18.512C357.004 19.472 357.508 20.624 357.508 21.968C357.508 23.216 356.956 24.392 355.852 25.496L346.276 34.64L357.004 44.576Z" fill="#DEF2F1"/>
</svg>
