<svg width="367" height="62" viewBox="0 0 367 62" fill="none" xmlns="http://www.w3.org/2000/svg">
<g filter="url(#filter0_d)">
<path d="M9.296 53C7.616 53 6.32 52.544 5.408 51.632C4.496 50.72 4.04 49.424 4.04 47.744V7.496C4.04 5.816 4.496 4.52 5.408 3.608C6.32 2.696 7.616 2.24 9.296 2.24H23.768C29.288 2.24 34.04 3.248 38.024 5.264C42.008 7.28 45.056 10.184 47.168 13.976C49.28 17.768 50.336 22.304 50.336 27.584C50.336 32.864 49.28 37.424 47.168 41.264C45.104 45.056 42.08 47.96 38.096 49.976C34.112 51.992 29.336 53 23.768 53H9.296ZM22.976 43.928C33.776 43.928 39.176 38.48 39.176 27.584C39.176 16.736 33.776 11.312 22.976 11.312H15.272V43.928H22.976ZM86.6741 16.928C88.3541 16.928 89.6741 17.384 90.6341 18.296C91.6421 19.208 92.1461 20.456 92.1461 22.04V48.464C92.1461 49.952 91.6181 51.152 90.5621 52.064C89.5541 52.976 88.2341 53.432 86.6021 53.432C85.0661 53.432 83.8421 53 82.9301 52.136C82.0181 51.272 81.5621 50.12 81.5621 48.68V47.96C80.4581 49.784 78.9941 51.176 77.1701 52.136C75.3941 53.096 73.3781 53.576 71.1221 53.576C66.6581 53.576 63.3221 52.352 61.1141 49.904C58.9541 47.408 57.8741 43.664 57.8741 38.672V22.04C57.8741 20.456 58.3541 19.208 59.3141 18.296C60.3221 17.384 61.6661 16.928 63.3461 16.928C65.0261 16.928 66.3461 17.384 67.3061 18.296C68.2661 19.208 68.7461 20.456 68.7461 22.04V38.888C68.7461 41 69.1781 42.56 70.0421 43.568C70.9541 44.576 72.3221 45.08 74.1461 45.08C76.2581 45.08 77.9621 44.36 79.2581 42.92C80.6021 41.48 81.2741 39.584 81.2741 37.232V22.04C81.2741 20.456 81.7541 19.208 82.7141 18.296C83.6741 17.384 84.9941 16.928 86.6741 16.928ZM129.073 16.928C130.753 16.928 132.073 17.384 133.033 18.296C134.041 19.208 134.545 20.456 134.545 22.04V48.464C134.545 49.952 134.017 51.152 132.961 52.064C131.953 52.976 130.633 53.432 129.001 53.432C127.465 53.432 126.241 53 125.329 52.136C124.417 51.272 123.961 50.12 123.961 48.68V47.96C122.857 49.784 121.393 51.176 119.569 52.136C117.793 53.096 115.777 53.576 113.521 53.576C109.057 53.576 105.721 52.352 103.513 49.904C101.353 47.408 100.273 43.664 100.273 38.672V22.04C100.273 20.456 100.753 19.208 101.713 18.296C102.721 17.384 104.065 16.928 105.745 16.928C107.425 16.928 108.745 17.384 109.705 18.296C110.665 19.208 111.145 20.456 111.145 22.04V38.888C111.145 41 111.577 42.56 112.441 43.568C113.353 44.576 114.721 45.08 116.545 45.08C118.657 45.08 120.361 44.36 121.657 42.92C123.001 41.48 123.673 39.584 123.673 37.232V22.04C123.673 20.456 124.153 19.208 125.113 18.296C126.073 17.384 127.393 16.928 129.073 16.928ZM165.063 16.784C169.287 16.784 172.431 18.032 174.495 20.528C176.559 22.976 177.591 26.696 177.591 31.688V48.32C177.591 49.904 177.087 51.152 176.079 52.064C175.119 52.976 173.799 53.432 172.119 53.432C170.439 53.432 169.119 52.976 168.159 52.064C167.199 51.152 166.719 49.904 166.719 48.32V32.192C166.719 29.792 166.263 28.04 165.351 26.936C164.487 25.832 163.119 25.28 161.247 25.28C158.991 25.28 157.167 26 155.775 27.44C154.431 28.88 153.759 30.8 153.759 33.2V48.32C153.759 49.904 153.279 51.152 152.319 52.064C151.359 52.976 150.039 53.432 148.359 53.432C146.679 53.432 145.335 52.976 144.327 52.064C143.367 51.152 142.887 49.904 142.887 48.32V21.896C142.887 20.408 143.391 19.208 144.399 18.296C145.455 17.384 146.799 16.928 148.431 16.928C149.919 16.928 151.119 17.384 152.031 18.296C152.991 19.16 153.471 20.288 153.471 21.68V22.688C154.719 20.768 156.327 19.304 158.295 18.296C160.311 17.288 162.567 16.784 165.063 16.784ZM191.179 53.432C189.595 53.432 188.275 53 187.219 52.136C186.211 51.272 185.707 50 185.707 48.32V22.04C185.707 20.36 186.235 19.088 187.291 18.224C188.347 17.36 189.643 16.928 191.179 16.928C192.715 16.928 193.987 17.36 194.995 18.224C196.051 19.088 196.579 20.36 196.579 22.04V48.32C196.579 50 196.051 51.272 194.995 52.136C193.987 53 192.715 53.432 191.179 53.432ZM191.179 11.168C189.259 11.168 187.747 10.688 186.643 9.728C185.539 8.72 184.987 7.376 184.987 5.696C184.987 4.016 185.539 2.696 186.643 1.736C187.747 0.775997 189.259 0.295996 191.179 0.295996C193.051 0.295996 194.539 0.799997 195.643 1.808C196.795 2.768 197.371 4.064 197.371 5.696C197.371 7.376 196.819 8.72 195.715 9.728C194.611 10.688 193.099 11.168 191.179 11.168ZM229.095 53.648C224.103 53.648 219.735 52.592 215.991 50.48C212.247 48.368 209.367 45.344 207.351 41.408C205.335 37.472 204.327 32.864 204.327 27.584C204.327 22.304 205.335 17.72 207.351 13.832C209.367 9.896 212.247 6.872 215.991 4.76C219.735 2.648 224.103 1.592 229.095 1.592C235.383 1.592 240.807 3.32 245.367 6.776C246.087 7.352 246.591 7.928 246.879 8.504C247.167 9.08 247.311 9.8 247.311 10.664C247.311 11.912 246.951 12.992 246.231 13.904C245.559 14.768 244.719 15.2 243.711 15.2C243.039 15.2 242.439 15.128 241.911 14.984C241.431 14.792 240.879 14.48 240.255 14.048C238.335 12.8 236.559 11.912 234.927 11.384C233.295 10.808 231.543 10.52 229.671 10.52C225.063 10.52 221.583 11.96 219.231 14.84C216.927 17.672 215.775 21.92 215.775 27.584C215.775 39.008 220.407 44.72 229.671 44.72C231.447 44.72 233.127 44.456 234.711 43.928C236.295 43.352 238.143 42.44 240.255 41.192C240.975 40.76 241.575 40.472 242.055 40.328C242.535 40.136 243.087 40.04 243.711 40.04C244.719 40.04 245.559 40.496 246.231 41.408C246.951 42.272 247.311 43.328 247.311 44.576C247.311 45.44 247.143 46.184 246.807 46.808C246.519 47.384 246.039 47.936 245.367 48.464C240.807 51.92 235.383 53.648 229.095 53.648ZM259.171 53.432C257.587 53.432 256.267 53 255.211 52.136C254.203 51.272 253.699 50 253.699 48.32V6.992C253.699 5.312 254.203 4.04 255.211 3.176C256.267 2.312 257.587 1.88 259.171 1.88C260.707 1.88 261.979 2.312 262.987 3.176C264.043 4.04 264.571 5.312 264.571 6.992V48.32C264.571 50 264.043 51.272 262.987 52.136C261.979 53 260.707 53.432 259.171 53.432ZM278.367 53.432C276.783 53.432 275.463 53 274.407 52.136C273.399 51.272 272.895 50 272.895 48.32V22.04C272.895 20.36 273.423 19.088 274.479 18.224C275.535 17.36 276.831 16.928 278.367 16.928C279.903 16.928 281.175 17.36 282.183 18.224C283.239 19.088 283.767 20.36 283.767 22.04V48.32C283.767 50 283.239 51.272 282.183 52.136C281.175 53 279.903 53.432 278.367 53.432ZM278.367 11.168C276.447 11.168 274.935 10.688 273.831 9.728C272.727 8.72 272.175 7.376 272.175 5.696C272.175 4.016 272.727 2.696 273.831 1.736C274.935 0.775997 276.447 0.295996 278.367 0.295996C280.239 0.295996 281.727 0.799997 282.831 1.808C283.983 2.768 284.559 4.064 284.559 5.696C284.559 7.376 284.007 8.72 282.903 9.728C281.799 10.688 280.287 11.168 278.367 11.168ZM308.434 53.576C304.786 53.576 301.594 52.832 298.858 51.344C296.122 49.856 294.01 47.744 292.522 45.008C291.082 42.272 290.362 39.056 290.362 35.36C290.362 31.664 291.13 28.424 292.666 25.64C294.25 22.808 296.458 20.624 299.29 19.088C302.122 17.552 305.386 16.784 309.082 16.784C311.002 16.784 312.922 17.048 314.842 17.576C316.81 18.104 318.562 18.848 320.098 19.808C321.586 20.72 322.33 22.064 322.33 23.84C322.33 25.088 322.042 26.12 321.466 26.936C320.89 27.704 320.122 28.088 319.162 28.088C318.538 28.088 317.938 27.992 317.362 27.8C316.834 27.56 316.114 27.224 315.202 26.792C314.194 26.264 313.282 25.856 312.466 25.568C311.698 25.28 310.81 25.136 309.802 25.136C307.114 25.136 305.05 26 303.61 27.728C302.218 29.408 301.522 31.88 301.522 35.144C301.522 38.408 302.218 40.904 303.61 42.632C305.05 44.36 307.114 45.224 309.802 45.224C310.81 45.224 311.698 45.104 312.466 44.864C313.234 44.576 314.17 44.144 315.274 43.568C316.186 43.136 316.906 42.824 317.434 42.632C317.962 42.392 318.538 42.272 319.162 42.272C320.074 42.272 320.818 42.68 321.394 43.496C322.018 44.312 322.33 45.344 322.33 46.592C322.33 48.368 321.586 49.688 320.098 50.552C318.562 51.512 316.786 52.256 314.77 52.784C312.754 53.312 310.642 53.576 308.434 53.576ZM361.004 44.576C362.108 45.632 362.66 46.832 362.66 48.176C362.66 49.52 362.156 50.72 361.148 51.776C360.188 52.832 359.06 53.36 357.764 53.36C356.516 53.36 355.364 52.856 354.308 51.848L338.54 37.232V48.248C338.54 49.928 338.012 51.2 336.956 52.064C335.948 52.928 334.676 53.36 333.14 53.36C331.556 53.36 330.236 52.928 329.18 52.064C328.172 51.2 327.668 49.928 327.668 48.248V6.992C327.668 5.312 328.172 4.04 329.18 3.176C330.236 2.312 331.556 1.88 333.14 1.88C334.676 1.88 335.948 2.312 336.956 3.176C338.012 4.04 338.54 5.312 338.54 6.992V32.768L352.94 18.584C353.996 17.528 355.172 17 356.468 17C357.812 17 358.988 17.504 359.996 18.512C361.004 19.472 361.508 20.624 361.508 21.968C361.508 23.216 360.956 24.392 359.852 25.496L350.276 34.64L361.004 44.576Z" fill="#3AAFA9"/>
</g>
<defs>
<filter id="filter0_d" x="0.0400391" y="0.296021" width="366.62" height="61.352" filterUnits="userSpaceOnUse" color-interpolation-filters="sRGB">
<feFlood flood-opacity="0" result="BackgroundImageFix"/>
<feColorMatrix in="SourceAlpha" type="matrix" values="0 0 0 0 0 0 0 0 0 0 0 0 0 0 0 0 0 0 127 0"/>
<feOffset dy="4"/>
<feGaussianBlur stdDeviation="2"/>
<feColorMatrix type="matrix" values="0 0 0 0 0 0 0 0 0 0 0 0 0 0 0 0 0 0 0.25 0"/>
<feBlend mode="normal" in2="BackgroundImageFix" result="effect1_dropShadow"/>
<feBlend mode="normal" in="SourceGraphic" in2="effect1_dropShadow" result="shape"/>
</filter>
</defs>
</svg>
